<svg width="80" height="80" viewBox="0 0 80 80" fill="none" xmlns="http://www.w3.org/2000/svg">
<path d="M40.0001 73.3334C35.3334 73.3334 30.9723 72.4584 26.9167 70.7084C22.8612 68.9584 19.3334 66.5834 16.3334 63.5834C13.3334 60.5834 10.9723 57.0417 9.25008 52.9584C7.52786 48.8751 6.66675 44.5001 6.66675 39.8334C6.66675 35.1667 7.52786 30.8195 9.25008 26.7917C10.9723 22.764 13.3334 19.2501 16.3334 16.2501C19.3334 13.2501 22.8612 10.9029 26.9167 9.20841C30.9723 7.51397 35.3334 6.66675 40.0001 6.66675C44.6667 6.66675 49.0279 7.51397 53.0834 9.20841C57.139 10.9029 60.6667 13.2501 63.6667 16.2501C66.6667 19.2501 69.0279 22.764 70.7501 26.7917C72.4723 30.8195 73.3334 35.1667 73.3334 39.8334C73.3334 44.5001 72.4723 48.8751 70.7501 52.9584C69.0279 57.0417 66.6667 60.5834 63.6667 63.5834C60.6667 66.5834 57.139 68.9584 53.0834 70.7084C49.0279 72.4584 44.6667 73.3334 40.0001 73.3334ZM40.0001 68.5001C41.9445 66.5001 43.5695 64.2084 44.8751 61.6251C46.1806 59.0417 47.2501 55.9723 48.0834 52.4167H32.0001C32.7779 55.7501 33.8195 58.7501 35.1251 61.4167C36.4306 64.0834 38.0556 66.4445 40.0001 68.5001ZM32.9167 67.5001C31.5279 65.389 30.3334 63.1112 29.3334 60.6667C28.3334 58.2223 27.5001 55.4723 26.8334 52.4167H14.3334C16.4445 56.3612 18.889 59.4584 21.6667 61.7084C24.4445 63.9584 28.1945 65.889 32.9167 67.5001ZM47.1667 67.4167C51.1667 66.139 54.764 64.2223 57.9584 61.6667C61.1529 59.1112 63.7223 56.0279 65.6667 52.4167H53.2501C52.5279 55.4167 51.6806 58.139 50.7084 60.5834C49.7362 63.0279 48.5556 65.3056 47.1667 67.4167ZM12.6667 47.4167H25.9167C25.7501 45.9167 25.6529 44.5695 25.6251 43.3751C25.5973 42.1806 25.5834 41.0001 25.5834 39.8334C25.5834 38.4445 25.6112 37.2084 25.6667 36.1251C25.7223 35.0417 25.8334 33.8334 26.0001 32.5001H12.6667C12.2779 33.8334 12.014 35.0279 11.8751 36.0834C11.7362 37.139 11.6667 38.389 11.6667 39.8334C11.6667 41.2779 11.7362 42.5695 11.8751 43.7084C12.014 44.8473 12.2779 46.0834 12.6667 47.4167ZM31.0834 47.4167H49.0001C49.2223 45.6945 49.3612 44.2917 49.4167 43.2084C49.4723 42.1251 49.5001 41.0001 49.5001 39.8334C49.5001 38.7223 49.4723 37.6529 49.4167 36.6251C49.3612 35.5973 49.2223 34.2223 49.0001 32.5001H31.0834C30.8612 34.2223 30.7223 35.5973 30.6667 36.6251C30.6112 37.6529 30.5834 38.7223 30.5834 39.8334C30.5834 41.0001 30.6112 42.1251 30.6667 43.2084C30.7223 44.2917 30.8612 45.6945 31.0834 47.4167ZM54.0001 47.4167H67.3334C67.7223 46.0834 67.9862 44.8473 68.1251 43.7084C68.264 42.5695 68.3334 41.2779 68.3334 39.8334C68.3334 38.389 68.264 37.139 68.1251 36.0834C67.9862 35.0279 67.7223 33.8334 67.3334 32.5001H54.0834C54.2501 34.4445 54.3612 35.9306 54.4167 36.9584C54.4723 37.9862 54.5001 38.9445 54.5001 39.8334C54.5001 41.0556 54.4584 42.2084 54.3751 43.2917C54.2917 44.3751 54.1667 45.7501 54.0001 47.4167ZM53.1667 27.5001H65.6667C63.8334 23.6667 61.3195 20.4723 58.1251 17.9167C54.9306 15.3612 51.2501 13.5556 47.0834 12.5001C48.4723 14.5556 49.6529 16.7779 50.6251 19.1667C51.5973 21.5556 52.4445 24.3334 53.1667 27.5001ZM32.0001 27.5001H48.1667C47.5556 24.5556 46.5279 21.7084 45.0834 18.9584C43.639 16.2084 41.9445 13.7779 40.0001 11.6667C38.2223 13.1667 36.7223 15.139 35.5001 17.5834C34.2779 20.0279 33.1112 23.3334 32.0001 27.5001ZM14.3334 27.5001H26.9167C27.5279 24.5001 28.3056 21.8195 29.2501 19.4584C30.1945 17.0973 31.389 14.8056 32.8334 12.5834C28.6667 13.639 25.0279 15.4167 21.9167 17.9167C18.8056 20.4167 16.2779 23.6112 14.3334 27.5001Z" fill="#05DCB5"/>
</svg>
