<svg width="150" height="59" viewBox="0 0 150 59" fill="none" xmlns="http://www.w3.org/2000/svg">
<path d="M65.9375 40.4656C64.7777 40.4656 63.7906 40.0713 62.976 39.2825C62.1614 38.4938 61.7541 37.5361 61.7541 36.4094H59.4166V20.5625C59.4166 20.0125 59.6291 19.5313 60.0541 19.1188C60.4791 18.7063 60.975 18.5 61.5416 18.5H82.0479V24.2406H85.7666L90.5833 30.4625V36.4094H88.0687C88.0687 37.5361 87.6628 38.4938 86.851 39.2825C86.0392 40.0713 85.0534 40.4656 83.8937 40.4656C82.734 40.4656 81.7468 40.0713 80.9323 39.2825C80.1177 38.4938 79.7104 37.5361 79.7104 36.4094H70.1125C70.1125 37.5323 69.7066 38.4891 68.8948 39.2797C68.0829 40.0703 67.0972 40.4656 65.9375 40.4656ZM65.9333 38.4031C66.5 38.4031 66.984 38.2083 67.3854 37.8188C67.7868 37.4292 67.9875 36.9594 67.9875 36.4094C67.9875 35.8594 67.7868 35.3896 67.3854 35C66.984 34.6104 66.5 34.4156 65.9333 34.4156C65.3666 34.4156 64.8826 34.6104 64.4812 35C64.0798 35.3896 63.8791 35.8594 63.8791 36.4094C63.8791 36.9594 64.0798 37.4292 64.4812 37.8188C64.8826 38.2083 65.3666 38.4031 65.9333 38.4031ZM61.5416 34.3469H62.3208C62.7222 33.7281 63.2303 33.2354 63.8452 32.8688C64.46 32.5021 65.1447 32.3188 65.8993 32.3188C66.6539 32.3188 67.3441 32.5078 67.9698 32.8859C68.5954 33.2641 69.109 33.751 69.5104 34.3469H79.9229V20.5625H61.5416V34.3469ZM83.8895 38.4031C84.4562 38.4031 84.9402 38.2083 85.3416 37.8188C85.743 37.4292 85.9437 36.9594 85.9437 36.4094C85.9437 35.8594 85.743 35.3896 85.3416 35C84.9402 34.6104 84.4562 34.4156 83.8895 34.4156C83.3229 34.4156 82.8388 34.6104 82.4375 35C82.0361 35.3896 81.8354 35.8594 81.8354 36.4094C81.8354 36.9594 82.0361 37.4292 82.4375 37.8188C82.8388 38.2083 83.3229 38.4031 83.8895 38.4031ZM82.0479 31.3906H88.6354L84.7041 26.3031H82.0479V31.3906Z" fill="#B1B1B1"/>
<path d="M104.5 29.5C104.5 44.8947 91.3634 57.5 75 57.5C58.6366 57.5 45.5 44.8947 45.5 29.5C45.5 14.1053 58.6366 1.5 75 1.5C91.3634 1.5 104.5 14.1053 104.5 29.5Z" stroke="#CECECE" stroke-width="3"/>
<rect width="44" height="4" transform="matrix(-1 0 0 1 150 28)" fill="#CFCFCF"/>
<rect y="28" width="44" height="4" fill="#CFCFCF"/>
</svg>
