<svg width="106" height="59" viewBox="0 0 106 59" fill="none" xmlns="http://www.w3.org/2000/svg">
<path d="M69.6062 38.8281L75.1667 35.5969L80.7271 38.8625L79.2396 32.7438L84.1271 28.6188L77.6812 28.0688L75.1667 22.2938L72.6521 28.0344L66.2062 28.5844L71.0937 32.7094L69.6062 38.8281ZM66.4187 43.125L68.7208 33.4656L61 26.9688L71.2 26.1094L75.1667 17L79.1333 26.1094L89.3333 26.9688L81.6125 33.4656L83.9146 43.125L75.1667 38.0031L66.4187 43.125Z" fill="#B1B1B1"/>
<path d="M104.5 29.5C104.5 44.8947 91.3634 57.5 75 57.5C58.6366 57.5 45.5 44.8947 45.5 29.5C45.5 14.1053 58.6366 1.5 75 1.5C91.3634 1.5 104.5 14.1053 104.5 29.5Z" stroke="#CECECE" stroke-width="3"/>
<rect y="28" width="44" height="4" fill="#CFCFCF"/>
</svg>
