<svg width="106" height="59" viewBox="0 0 106 59" fill="none" xmlns="http://www.w3.org/2000/svg">
<path d="M37.9333 41.2219L42.8562 36.4781L41.3687 35.0344L37.9333 38.3L36.5521 36.9594L35.0646 38.4375L37.9333 41.2219ZM21.5 24.6875H38.5V22.625H21.5V24.6875ZM38.9427 44.5906C37.1128 44.5906 35.5486 43.9547 34.25 42.6828C32.9514 41.4109 32.3021 39.9042 32.3021 38.1625C32.3021 36.365 32.9513 34.8328 34.2496 33.5659C35.548 32.2991 37.1183 31.6656 38.9604 31.6656C40.7785 31.6656 42.3427 32.2991 43.6531 33.5659C44.9635 34.8328 45.6187 36.365 45.6187 38.1625C45.6187 39.9042 44.9635 41.4109 43.6531 42.6828C42.3427 43.9547 40.7726 44.5906 38.9427 44.5906ZM17.25 43.2156V19.1875C17.25 18.6203 17.4581 18.1348 17.8742 17.7309C18.2904 17.327 18.7906 17.125 19.375 17.125H40.625C41.2094 17.125 41.7096 17.327 42.1258 17.7309C42.5419 18.1348 42.75 18.6203 42.75 19.1875V30.4281C42.4155 30.271 42.0721 30.14 41.7199 30.0353C41.3677 29.9305 41.0028 29.8438 40.625 29.775V19.1875H19.375V39.7781H30.3542C30.4223 40.1946 30.5278 40.5909 30.6709 40.967C30.8139 41.3432 30.9799 41.7146 31.1687 42.0813L30 43.2156L27.875 41.1531L25.75 43.2156L23.625 41.1531L21.5 43.2156L19.375 41.1531L17.25 43.2156ZM21.5 36.375H30.4346C30.5227 36.0083 30.6198 35.6531 30.726 35.3094C30.8323 34.9656 30.9799 34.6333 31.1687 34.3125H21.5V36.375ZM21.5 30.5313H35.1C35.6194 30.2792 36.1625 30.0786 36.7292 29.9297C37.2958 29.7807 37.8861 29.6833 38.5 29.6375V28.4688H21.5V30.5313Z" fill="#B1B1B1"/>
<path d="M60.5 29.5C60.5 44.8947 47.3634 57.5 31 57.5C14.6366 57.5 1.5 44.8947 1.5 29.5C1.5 14.1053 14.6366 1.5 31 1.5C47.3634 1.5 60.5 14.1053 60.5 29.5Z" stroke="#CECECE" stroke-width="3"/>
<rect x="62" y="28" width="44" height="4" fill="#CFCFCF"/>
</svg>
