<svg width="150" height="59" viewBox="0 0 150 59" fill="none" xmlns="http://www.w3.org/2000/svg">
<path d="M64.375 35.3438L73.9375 40.7063V30.0844L64.375 24.7219V35.3438ZM76.0625 40.7063L85.625 35.3438V24.6875L76.0625 30.0844V40.7063ZM65.5437 23.0031L75 28.3313L84.4208 23.0031L75 17.7094L65.5437 23.0031ZM62.25 36.5469V23.6563C62.25 23.2896 62.3444 22.9458 62.5333 22.625C62.7222 22.3042 62.9819 22.0521 63.3125 21.8688L73.9375 15.9219C74.2681 15.7385 74.6222 15.6469 75 15.6469C75.3778 15.6469 75.7319 15.7385 76.0625 15.9219L86.6875 21.8688C87.0181 22.0521 87.2778 22.3042 87.4667 22.625C87.6556 22.9458 87.75 23.2896 87.75 23.6563V35.3438C87.75 35.7104 87.6556 36.0542 87.4667 36.375C87.2778 36.6958 87.0181 36.9479 86.6875 37.1313L76.0625 43.0781C75.7319 43.2615 75.3778 43.3531 75 43.3531C74.6222 43.3531 74.2681 43.2615 73.9375 43.0781L62.25 36.5469Z" fill="#B1B1B1"/>
<path d="M104.5 29.5C104.5 44.8947 91.3634 57.5 75 57.5C58.6366 57.5 45.5 44.8947 45.5 29.5C45.5 14.1053 58.6366 1.5 75 1.5C91.3634 1.5 104.5 14.1053 104.5 29.5Z" stroke="#CECECE" stroke-width="3"/>
<rect width="44" height="4" transform="matrix(-1 0 0 1 150 28)" fill="#CFCFCF"/>
<rect y="28" width="44" height="4" fill="#CFCFCF"/>
</svg>
