<svg width="150" height="59" viewBox="0 0 150 59" fill="none" xmlns="http://www.w3.org/2000/svg">
<path d="M77.125 31.5625C75.9444 31.5625 74.9409 31.1615 74.1145 30.3594C73.2882 29.5573 72.875 28.5833 72.875 27.4375C72.875 26.2917 73.2882 25.3177 74.1145 24.5156C74.9409 23.7135 75.9444 23.3125 77.125 23.3125C78.3055 23.3125 79.309 23.7135 80.1354 24.5156C80.9618 25.3177 81.375 26.2917 81.375 27.4375C81.375 28.5833 80.9618 29.5573 80.1354 30.3594C79.309 31.1615 78.3055 31.5625 77.125 31.5625ZM65.7916 36.375C65.2073 36.375 64.707 36.173 64.2908 35.7691C63.8747 35.3652 63.6666 34.8797 63.6666 34.3125V20.5625C63.6666 19.9953 63.8747 19.5098 64.2908 19.1059C64.707 18.702 65.2073 18.5 65.7916 18.5H88.4583C89.0427 18.5 89.5429 18.702 89.9591 19.1059C90.3752 19.5098 90.5833 19.9953 90.5833 20.5625V34.3125C90.5833 34.8797 90.3752 35.3652 89.9591 35.7691C89.5429 36.173 89.0427 36.375 88.4583 36.375H65.7916ZM69.3333 34.3125H84.9166C84.9166 33.35 85.259 32.5365 85.9437 31.8719C86.6284 31.2073 87.4666 30.875 88.4583 30.875V24C87.4666 24 86.6284 23.6677 85.9437 23.0031C85.259 22.3385 84.9166 21.525 84.9166 20.5625H69.3333C69.3333 21.525 68.9909 22.3385 68.3062 23.0031C67.6215 23.6677 66.7833 24 65.7916 24V30.875C66.7833 30.875 67.6215 31.2073 68.3062 31.8719C68.9909 32.5365 69.3333 33.35 69.3333 34.3125ZM86.3333 40.5H61.5416C60.9573 40.5 60.457 40.298 60.0408 39.8941C59.6247 39.4902 59.4166 39.0047 59.4166 38.4375V22.625H61.5416V38.4375H86.3333V40.5Z" fill="#B1B1B1"/>
<path d="M104.5 29.5C104.5 44.8947 91.3634 57.5 75 57.5C58.6366 57.5 45.5 44.8947 45.5 29.5C45.5 14.1053 58.6366 1.5 75 1.5C91.3634 1.5 104.5 14.1053 104.5 29.5Z" stroke="#CECECE" stroke-width="3"/>
<rect width="44" height="4" transform="matrix(-1 0 0 1 44 28)" fill="#CFCFCF"/>
<rect width="44" height="4" transform="matrix(-1 0 0 1 150 28)" fill="#CFCFCF"/>
</svg>
